<?xml version="1.0" encoding="UTF-8"?><svg xmlns="http://www.w3.org/2000/svg" viewBox="0 0 512 512"><defs><style>.cls-1{fill:#fff;}.cls-2{fill:#3fd092;}</style></defs><g id="bg"><rect class="cls-2" width="512" height="512" rx="128" ry="128"/></g><g id="text"><path class="cls-1" d="M372.45,191.04c3.43-6.56,5.15-13.94,5.15-22.15,0-12.46-3.68-21.9-11.03-28.3-7.36-6.4-16.76-9.6-28.2-9.6H144.21c-1.31,2.3-3.27,7.13-5.89,14.52-2.62,7.38-3.92,15.34-3.92,23.87,0,11.81,3.1,20.42,9.32,25.84,6.2,5.41,16.67,8.12,31.38,8.12h91.69l-109.83,96.45c-8.16,7.54-13.97,14.59-17.4,21.16-3.43,6.56-5.15,13.94-5.15,22.15,0,12.46,3.68,21.9,11.03,28.3,7.36,6.4,16.76,9.6,28.2,9.6h194.16c1.31-2.3,3.27-7.13,5.89-14.52,2.62-7.38,3.92-15.34,3.92-23.87,0-11.81-3.1-20.42-9.32-25.84-6.2-5.41-16.67-8.12-31.38-8.12h-91.69l109.83-96.45c8.17-7.54,13.97-14.59,17.4-21.16Z"/></g></svg>