<?xml version="1.0" encoding="UTF-8"?><svg id="zaprite" xmlns="http://www.w3.org/2000/svg" viewBox="0 0 442 128"><defs><style>.cls-1{fill:#20c997;}</style></defs><path class="cls-1" d="M130.7,34.4c-3.37-2.3-7.34-3.92-11.92-4.87-4.58-.95-9.48-1.42-14.68-1.42-15.99,0-23.98,3.92-23.98,11.76,0,1.26.22,2.43.67,3.52.45,1.08.94,2.05,1.48,2.91.54.86,1.08,1.55,1.62,2.09.54.54.9.9,1.08,1.08.36-.27.99-.63,1.89-1.08.9-.45,2.09-.9,3.57-1.35,1.48-.45,3.28-.83,5.39-1.15,2.11-.31,4.56-.47,7.34-.47,5.93,0,10.17.9,12.73,2.7,2.56,1.8,3.84,4.28,3.84,7.43-1.26-.18-2.85-.31-4.78-.4-1.93-.09-4.33-.14-7.21-.14-11.5,0-19.89,1.78-25.19,5.34-5.3,3.56-7.95,9.49-7.95,17.78,0,3.07.54,5.97,1.62,8.72,1.08,2.75,2.96,5.16,5.66,7.23,2.69,2.07,6.28,3.72,10.78,4.93,4.49,1.22,10.15,1.83,16.97,1.83,4.04,0,7.88-.09,11.52-.27,3.64-.18,6.87-.41,9.7-.68,2.83-.27,5.19-.52,7.07-.74,1.89-.22,3.1-.43,3.64-.61v-40.83c0-5.68-.97-10.41-2.9-14.2-1.93-3.78-4.58-6.83-7.95-9.13ZM119.86,84.76c-.63.18-1.93.34-3.91.47-1.98.13-4.13.2-6.46.2-2.96,0-5.34-.25-7.14-.74-1.8-.49-3.14-1.1-4.04-1.83-.9-.72-1.48-1.53-1.75-2.43-.27-.9-.4-1.76-.4-2.57,0-1.08.18-2.12.54-3.11.36-.99,1.01-1.87,1.95-2.64.94-.76,2.27-1.37,3.97-1.82s3.91-.68,6.6-.68c3.14,0,5.5.07,7.07.2,1.57.14,2.76.29,3.57.47v14.47Z"/><path class="cls-1" d="M299.76,2c-3.41,0-6.26,1.17-8.55,3.52-2.29,2.34-3.43,5.23-3.43,8.65s1.14,6.29,3.43,8.59c2.29,2.3,5.14,3.45,8.55,3.45s6.28-1.15,8.62-3.45c2.33-2.3,3.5-5.16,3.5-8.59s-1.17-6.31-3.5-8.65c-2.34-2.34-5.21-3.52-8.62-3.52Z"/><path class="cls-1" d="M300.3,30.01c-3.41,0-6.15.72-8.22,2.16-2.07,1.44-3.1,3.92-3.1,7.44v56.65c.67.36,2.1.9,4.27,1.62,2.17.72,4.5,1.08,7.01,1.08,3.47,0,6.07-.86,7.81-2.57,1.73-1.71,2.6-4.6,2.6-8.65v-55.7c-.54-.18-1.8-.56-3.77-1.15-1.98-.59-4.18-.88-6.6-.88Z"/><path class="cls-1" d="M419.73,72.06c5.16-.99,9.25-2.41,12.26-4.26,3.01-1.85,5.1-4.1,6.26-6.76,1.17-2.66,1.75-5.66,1.75-8.99,0-3.06-.7-6.04-2.09-8.92-1.39-2.88-3.41-5.45-6.06-7.71-2.65-2.25-5.91-4.03-9.77-5.34-3.86-1.31-8.22-1.96-13.07-1.96-5.21,0-10.06.88-14.55,2.64-4.49,1.76-8.4,4.21-11.72,7.37-3.32,3.16-5.93,6.99-7.81,11.49-1.89,4.51-2.83,9.46-2.83,14.87,0,5.77.94,10.91,2.83,15.41,1.89,4.51,4.47,8.32,7.74,11.42,3.28,3.11,7.12,5.48,11.52,7.1,4.4,1.62,9.11,2.43,14.14,2.43,4.04,0,7.75-.29,11.11-.88,3.37-.59,6.31-1.28,8.82-2.09,2.44-.79,4.48-1.58,6.11-2.37,0,0,.02,0,.02,0,1.13-.47,1.79-.95,1.79-.95.02-.63-.11-1.86-.37-3.72-.26-1.85-.85-3.69-1.77-5.52-1.27-2.54-2.85-4.12-4.74-4.76-1.17-.39-2.57-.33-4.15.09-.03,0-.06-.03-.09-.02-1.53.45-3.37.96-5.43,1.36-2.07.41-4.27.61-6.6.61-3.05,0-5.66-.27-7.81-.81-2.16-.54-3.93-1.26-5.32-2.16-1.39-.9-2.47-1.87-3.23-2.91-.76-1.04-1.24-2.1-1.41-3.18h4.71c7.99,0,14.57-.5,19.73-1.49ZM394.2,59.48c.09-1.8.45-3.58,1.08-5.34.63-1.76,1.55-3.31,2.76-4.66,1.21-1.35,2.71-2.45,4.51-3.31,1.79-.86,3.91-1.28,6.33-1.28,3.41,0,5.97.7,7.68,2.1,1.7,1.4,2.56,3.04,2.56,4.93,0,.9-.18,1.8-.54,2.7-.36.9-1.35,1.71-2.96,2.43-1.62.72-4.09,1.31-7.41,1.76-3.32.45-7.99.68-14.01.68Z"/><path class="cls-1" d="M279.62,33.66c-1.35-1.35-3.52-2.61-6.53-3.78-3.01-1.17-7.21-1.76-12.6-1.76-4.4,0-8.44.61-12.12,1.82-3.68,1.22-6.83,3-9.43,5.34-2.61,2.34-4.65,5.23-6.13,8.65-1.48,3.43-2.22,7.35-2.22,11.76v40.56c.67.36,2.1.9,4.27,1.62,2.17.72,4.5,1.08,7.01,1.08,3.47,0,6.07-.86,7.81-2.57,1.73-1.71,2.6-4.6,2.6-8.65v-27.31c0-4.6,1.19-7.89,3.57-9.87,2.38-1.98,5.27-2.97,8.69-2.97,2.6,0,4.98.32,7.14.95,2.16.63,4,1.31,5.52,2.03.27-.27.67-.72,1.21-1.35.54-.63,1.1-1.4,1.68-2.3.58-.9,1.08-1.94,1.48-3.11.4-1.17.61-2.43.61-3.79s-.22-2.52-.67-3.51c-.45-.99-1.08-1.94-1.89-2.84Z"/><path class="cls-1" d="M213.15,38.12c-3.32-3.15-7.25-5.61-11.79-7.37-4.54-1.76-9.45-2.64-14.75-2.64-6.47,0-12.35,1.17-17.65,3.52-5.3,2.34-9.65,5.77-13.07,10.27-2.16,2.89-3.82,6.44-4.98,10.68-1.17,4.24-1.75,9.24-1.75,15.01v55.7c.67.36,2.08.9,4.24,1.62,2.16.72,4.48,1.08,6.97,1.08,3.45,0,6.03-.86,7.76-2.57,1.72-1.71,2.59-4.6,2.59-8.65v-21.36c1.62,1.62,4.06,3.22,7.34,4.8,3.28,1.58,7.43,2.37,12.46,2.37,4.58,0,8.89-.86,12.93-2.57,4.04-1.71,7.56-4.15,10.57-7.3,3.01-3.15,5.39-6.94,7.14-11.36,1.75-4.41,2.63-9.37,2.63-14.87s-.94-10.36-2.83-14.87c-1.89-4.51-4.49-8.34-7.81-11.49ZM197.19,76.31c-2.92,3.11-6.62,4.67-11.11,4.67-2.25,0-4.31-.43-6.2-1.28-1.89-.86-3.52-2.03-4.92-3.52-1.39-1.49-2.47-3.25-3.23-5.27-.76-2.03-1.15-4.21-1.15-6.56,0-5.05,1.46-9.01,4.38-11.9,2.92-2.88,6.62-4.33,11.11-4.33s8.19,1.49,11.11,4.46c2.92,2.97,4.38,6.89,4.38,11.76s-1.46,8.86-4.38,11.97Z"/><path class="cls-1" d="M370.46,89.78c-.21-1.61-.71-3.29-1.49-5.04-1.09-2.46-2.49-4.2-4.18-5.23-1.69-1.03-3.8-.98-6.31.15l-.41.19c-2.15.84-4.51,1.27-7.02,1.27-1.26,0-2.49-.11-3.71-.34-1.21-.22-2.29-.7-3.23-1.42-.94-.72-1.73-1.69-2.36-2.91-.63-1.22-.94-2.86-.94-4.93v-21.22h23.98c.36-.63.9-1.96,1.62-3.99.72-2.03,1.08-4.21,1.08-6.56,0-3.24-.86-5.68-2.56-7.3-1.71-1.62-4.58-2.43-8.62-2.43h-15.49V11.76c-.54-.18-1.8-.56-3.77-1.15-1.98-.58-4.18-.88-6.6-.88-3.41,0-6.15.72-8.22,2.16-2.07,1.44-3.1,3.92-3.1,7.44v56.92c0,7.48,2.38,13.45,7.14,17.91,4.76,4.46,11.36,6.69,19.8,6.69,2.96,0,5.79-.29,8.49-.88,2.69-.59,5.12-1.28,7.27-2.09,2.16-.81,3.99-1.67,5.52-2.57,1.53-.9,2.69-1.71,3.5-2.43h0s0,0,0,0c-.04-.45-.17-1.48-.39-3.09Z"/><path class="cls-1" d="M67.26,46.5c.94-1.8,1.42-3.83,1.42-6.08,0-3.42-1.01-6.02-3.03-7.77-2.02-1.76-4.6-2.64-7.75-2.64H4.56c-.36.63-.9,1.96-1.62,3.99-.72,2.03-1.08,4.21-1.08,6.56,0,3.24.85,5.61,2.56,7.1,1.7,1.49,4.58,2.23,8.62,2.23h25.19l-30.17,26.5c-2.24,2.07-3.84,4.01-4.78,5.81-.94,1.8-1.42,3.83-1.42,6.08,0,3.42,1.01,6.02,3.03,7.77,2.02,1.76,4.6,2.64,7.75,2.64h53.34c.36-.63.9-1.96,1.62-3.99.72-2.03,1.08-4.21,1.08-6.56,0-3.24-.85-5.61-2.56-7.1-1.7-1.49-4.58-2.23-8.62-2.23h-25.19l30.17-26.5c2.24-2.07,3.84-4.01,4.78-5.81Z"/></svg>